<svg width="44" height="44" fill="none" xmlns="http://www.w3.org/2000/svg"><path d="M27.449 8.554H17.4c-.984 0-1.969-.01-2.954.003a1.777 1.777 0 00-1.9 1.894c-.007 7.672-.007 15.345 0 23.018a1.771 1.771 0 001.883 1.91c5.417.01 10.833.01 16.25 0 1.206 0 1.904-.752 1.905-2.018.005-5.416.006-10.832.003-16.248v-.451a.76.76 0 01.74-.875c.466-.039.794.31.797.875.01 2.257.005 4.513.005 6.77v9.865c0 2.236-1.38 3.63-3.594 3.632-5.31.002-10.619.002-15.928 0-2.222 0-3.604-1.39-3.605-3.619-.003-7.543-.003-15.087 0-22.631 0-2.32 1.357-3.673 3.677-3.673 4.474-.003 8.949-.011 13.423 0a5.904 5.904 0 015.982 5.196c.184 1.209-.072 1.508-1.293 1.508-.685 0-1.37.013-2.055-.004a3.332 3.332 0 01-3.284-3.287c-.016-.597-.003-1.196-.003-1.865zm4.985 3.556a4.023 4.023 0 00-3.387-3.402c-.416 2.86.528 3.81 3.387 3.402z" fill="#2680EB" stroke="#2680EB" stroke-width=".5"/><path d="M27.448 21.58c0 .494.008.989 0 1.482-.01.4.126.662.556.716a.728.728 0 01.719.758.723.723 0 01-.7.776c-.47.058-.583.346-.577.765.01.966.02 1.933 0 2.9a2.303 2.303 0 01-1.988 2.26c-.592.08-1.029-.165-1.072-.642-.049-.55.245-.83.78-.891a.778.778 0 00.743-.878c0-.88-.03-1.762.014-2.64.055-.462.146-.919.273-1.366.026-.12.131-.277.088-.35-.667-1.147-.267-2.4-.372-3.6-.018-.214 0-.43-.005-.642a.79.79 0 00-.72-.836c-.62-.123-.899-.467-.802-.933.098-.466.525-.688 1.117-.59a2.309 2.309 0 011.942 2.17c.026.514.005 1.03.005 1.545l-.002-.004zm-9.768 5.95a9.839 9.839 0 00-.024-1.541.966.966 0 00-.525-.642c-.408-.146-.714-.32-.724-.773a.742.742 0 01.745-.8c.438-.059.533-.35.53-.738-.008-.966-.017-1.933 0-2.9a2.312 2.312 0 011.908-2.266c.621-.117 1.097.122 1.15.614.063.588-.264.851-.824.918a.751.751 0 00-.695.85c0 .837.036 1.677-.015 2.511-.062.524-.16 1.044-.291 1.555-.023.116-.1.278-.05.354.536.826.317 1.749.354 2.638.02.493.008.988.003 1.481a.797.797 0 00.77.919c.54.061.837.374.745.912-.095.551-.525.68-1.027.621a2.312 2.312 0 01-2.024-2.228c-.02-.494-.003-.988-.003-1.482l-.003-.002z" fill="#2680EB" stroke="#2680EB" stroke-width=".5"/></svg>