<svg width="44" height="44" fill="none" xmlns="http://www.w3.org/2000/svg"><path d="M38.11 15.063h-4.983a.782.782 0 100 1.566h4.983a2.348 2.348 0 012.345 2.345v11.255a2.347 2.347 0 01-2.345 2.345h-1.096a.782.782 0 00-.553.23l-2.574 2.573-2.573-2.574a.782.782 0 00-.553-.229H20.446A2.348 2.348 0 0118.1 30.23v-2.813a.783.783 0 00-1.566 0v2.813a3.912 3.912 0 003.908 3.908h9.996l2.897 2.897a.782.782 0 001.105 0l2.898-2.897h.77a3.912 3.912 0 003.908-3.908V18.971a3.913 3.913 0 00-3.907-3.908z" fill="#2680EB" stroke="#2680EB" stroke-width=".3"/><path d="M23.572 6H5.908A3.912 3.912 0 002 9.908v11.255a3.912 3.912 0 003.908 3.908h1.641l2.898 2.897a.782.782 0 001.105 0l2.897-2.897h9.123a3.912 3.912 0 003.908-3.908V9.908A3.912 3.912 0 0023.572 6v0zm2.345 15.163a2.348 2.348 0 01-2.345 2.345h-9.446a.782.782 0 00-.553.23L11 26.31l-2.573-2.574a.78.78 0 00-.556-.229H5.908a2.348 2.348 0 01-2.345-2.345V9.908a2.348 2.348 0 012.345-2.343h17.664a2.348 2.348 0 012.345 2.343v11.255zm7.829 6.417l-2.772-6.565a.782.782 0 00-1.44 0l-2.771 6.566a.782.782 0 001.44.608l.392-.928h3.319l.392.928a.781.781 0 101.44-.608zm-4.492-1.882l1.002-2.37 1.002 2.37h-2.004z" fill="#2680EB" stroke="#2680EB" stroke-width=".3"/><path d="M18.37 18.264l-.743-.546c.235-.487.357-1.02.356-1.56v-1.253a3.595 3.595 0 00-7.19 0v1.253a3.592 3.592 0 005.864 2.786l.785.578a.782.782 0 00.927-1.258h0zm-1.95-2.107c0 .205-.03.409-.09.604l-.827-.608a.778.778 0 00-.867-.04.781.781 0 00-.06 1.299l.746.549a2.031 2.031 0 01-2.966-1.804v-1.253a2.032 2.032 0 014.065 0v1.253z" fill="#2680EB" stroke="#2680EB" stroke-width=".3"/></svg>