<svg width="44" height="44" fill="none" xmlns="http://www.w3.org/2000/svg"><path fill-rule="evenodd" clip-rule="evenodd" d="M6 13.014a3.97 3.97 0 011.199-2.838A4.134 4.134 0 0110.093 9h23.814c.538 0 1.07.104 1.567.306a4.1 4.1 0 011.327.87A3.99 3.99 0 0138 13.014v14.594c0 .527-.106 1.049-.312 1.536a4.01 4.01 0 01-.887 1.302 4.11 4.11 0 01-1.328.87 4.163 4.163 0 01-1.566.305h-8.61l1.116 2.19h3.032c.291.006.568.125.772.33a1.083 1.083 0 010 1.529 1.131 1.131 0 01-.772.33H14.558a1.137 1.137 0 01-.807-.311 1.095 1.095 0 01-.336-.784 1.077 1.077 0 01.336-.783 1.12 1.12 0 01.807-.312h3.031l1.114-2.186h-8.61a4.16 4.16 0 01-1.567-.305 4.1 4.1 0 01-1.328-.871 4.01 4.01 0 01-.887-1.303A3.947 3.947 0 016 27.608V13.014zm27.907 16.42H10.093a1.893 1.893 0 01-1.318-.534 1.822 1.822 0 01-.545-1.292V13.014a1.794 1.794 0 01.545-1.292 1.863 1.863 0 011.318-.535h23.814a1.892 1.892 0 011.318.535 1.822 1.822 0 01.545 1.292v14.594a1.795 1.795 0 01-.545 1.293 1.864 1.864 0 01-1.318.534z" fill="#2680EB"/></svg>