<svg width="44" height="44" fill="none" xmlns="http://www.w3.org/2000/svg"><path d="M24.952 6.969H21.39a.89.89 0 100 1.78h3.562a.89.89 0 100-1.78z" fill="#2680EB" stroke="#2680EB" stroke-width=".5"/><path d="M28.81 4H14.562A3.566 3.566 0 0011 7.562v28.495a3.566 3.566 0 003.562 3.562H28.81a3.566 3.566 0 003.561-3.562V7.562A3.566 3.566 0 0028.81 4v0zm1.78 32.057a1.781 1.781 0 01-1.78 1.781H14.562a1.78 1.78 0 01-1.781-1.78V7.561a1.781 1.781 0 011.78-1.781H28.81a1.78 1.78 0 011.781 1.78v28.496z" fill="#2680EB" stroke="#2680EB" stroke-width=".5"/><path d="M18.42 8.75a.89.89 0 100-1.781.89.89 0 000 1.78z" fill="#2680EB" stroke="#2680EB" stroke-width=".5"/></svg>